name D:\school\WTK\thesis\model\3dpredictsim\Results\batch_windlass\Pog_s1_tmt_bCst_d05_k800_WL30_ig24_act_TTC.mot
datacolumns 128
datarows 4
range 1.19404308 1.22986437
endheader
time	pelvis_tilt	pelvis_list	pelvis_rotation	pelvis_tx	pelvis_ty	pelvis_tz	hip_flexion_l	hip_adduction_l	hip_rotation_l	hip_flexion_r	hip_adduction_r	hip_rotation_r	knee_angle_l	knee_angle_r	ankle_angle_l	ankle_angle_r	subtalar_angle_l	subtalar_angle_r	tmt_angle_l	tmt_angle_r	mtp_angle_l	mtp_angle_r	lumbar_extension	lumbar_bending	lumbar_rotation	arm_flex_l	arm_add_l	arm_rot_l	arm_flex_r	arm_add_r	arm_rot_r	elbow_flex_l	elbow_flex_r	pro_sup_l	pro_sup_r	glut_med1_l/activation	glut_med2_l/activation	glut_med3_l/activation	glut_min1_l/activation	glut_min2_l/activation	glut_min3_l/activation	semimem_l/activation	semiten_l/activation	bifemlh_l/activation	bifemsh_l/activation	sar_l/activation	add_long_l/activation	add_brev_l/activation	add_mag1_l/activation	add_mag2_l/activation	add_mag3_l/activation	tfl_l/activation	pect_l/activation	grac_l/activation	glut_max1_l/activation	glut_max2_l/activation	glut_max3_l/activation	iliacus_l/activation	psoas_l/activation	quad_fem_l/activation	gem_l/activation	peri_l/activation	rect_fem_l/activation	vas_med_l/activation	vas_int_l/activation	vas_lat_l/activation	med_gas_l/activation	lat_gas_l/activation	soleus_l/activation	tib_post_l/activation	flex_dig_l/activation	flex_hal_l/activation	tib_ant_l/activation	per_brev_l/activation	per_long_l/activation	per_tert_l/activation	ext_dig_l/activation	ext_hal_l/activation	ercspn_l/activation	intobl_l/activation	extobl_l/activation	glut_med1_r/activation	glut_med2_r/activation	glut_med3_r/activation	glut_min1_r/activation	glut_min2_r/activation	glut_min3_r/activation	semimem_r/activation	semiten_r/activation	bifemlh_r/activation	bifemsh_r/activation	sar_r/activation	add_long_r/activation	add_brev_r/activation	add_mag1_r/activation	add_mag2_r/activation	add_mag3_r/activation	tfl_r/activation	pect_r/activation	grac_r/activation	glut_max1_r/activation	glut_max2_r/activation	glut_max3_r/activation	iliacus_r/activation	psoas_r/activation	quad_fem_r/activation	gem_r/activation	peri_r/activation	rect_fem_r/activation	vas_med_r/activation	vas_int_r/activation	vas_lat_r/activation	med_gas_r/activation	lat_gas_r/activation	soleus_r/activation	tib_post_r/activation	flex_dig_r/activation	flex_hal_r/activation	tib_ant_r/activation	per_brev_r/activation	per_long_r/activation	per_tert_r/activation	ext_dig_r/activation	ext_hal_r/activation	ercspn_r/activation	intobl_r/activation	extobl_r/activation	
          1.19404308	         -2.92932653	         -0.59735838	          8.36372508	          1.49255384	          0.85878666	         -0.00186400	        -15.65886862	         -2.42883481	          6.03478401	         32.76145048	         -0.72854082	         -3.16783885	        -16.61078117	        -19.85223862	         -8.40035141	          3.56493432	         17.67533657	          7.18252151	        -11.36947668	         -0.22657247	         36.61035351	          0.72047218	          0.64747534	         -2.10622580	         -2.54306239	          2.84963297	        -13.51178564	         15.88259214	        -12.64389672	        -13.56537384	         11.77286785	         40.86002845	         17.49578792	         86.51662706	         86.51662706	          0.14290514	          0.08539683	          0.05167171	          0.17524134	          0.12687674	          0.08432707	          0.05000101	          0.05000012	          0.05000014	          0.05000004	          0.08016883	          0.11041464	          0.09850489	          0.07624545	          0.05013802	          0.05995087	          0.17074614	          0.05000199	          0.05000029	          0.05000732	          0.05001217	          0.05118533	          0.29670842	          0.37003808	          0.05000021	          0.05000079	          0.05000345	          0.21357197	          0.06177607	          0.08141466	          0.06004195	          0.13159079	          0.18872128	          0.05000000	          0.12807952	          0.13069911	          0.14638679	          0.23729964	          0.46809546	          0.35039262	          0.51684696	          0.37446522	          0.23157593	          0.05000000	          0.05440353	          0.05000015	          0.06784383	          0.05993064	          0.05995015	          0.05000399	          0.05000247	          0.05000700	          0.06030402	          0.05995134	          0.09274252	          0.05995041	          0.05005545	          0.05664738	          0.11582526	          0.12660826	          0.12763983	          0.10976650	          0.05994996	          0.05000320	          0.05995364	          0.07155565	          0.07793316	          0.10860351	          0.07578856	          0.07135395	          0.19764091	          0.05000275	          0.05000548	          0.05000051	          0.09090329	          0.10062056	          0.08518006	          0.07082798	          0.06537048	          0.06198021	          0.05995035	          0.06255382	          0.06209416	          0.49862622	          0.24343039	          0.17632521	          0.12539817	          0.50127680	          0.13760964	          0.05000001	          0.13385168	          0.11428146	
          1.20598351	         -2.92203039	         -0.50466006	          8.51125079	          1.51172381	          0.85746454	         -0.00155545	        -15.85213058	         -2.62739310	          5.77695328	         32.20058896	         -0.54857962	         -2.96426991	        -17.78165643	        -19.62979600	        -11.07212829	          3.07772682	         18.01322508	          6.77827673	        -11.73665401	         -0.27162518	         37.07176762	          0.86206610	          0.87426257	         -1.94816046	         -2.63497949	          2.48546913	        -13.56846379	         16.19312402	        -14.03478729	        -13.55344433	         11.80867886	         41.88070446	         17.50254315	         86.51662706	         86.51662706	          0.11918628	          0.07122305	          0.05026699	          0.14615544	          0.10581822	          0.07033095	          0.05006617	          0.05995096	          0.06000611	          0.05995040	          0.06686300	          0.16180251	          0.25013074	          0.12514147	          0.05465804	          0.05000074	          0.14240631	          0.08621492	          0.07188288	          0.05000182	          0.05000100	          0.05000089	          0.24746178	          0.30862043	          0.07188079	          0.07186428	          0.05995053	          0.17812402	          0.05152270	          0.06790175	          0.05007640	          0.10974980	          0.15739796	          0.05000000	          0.10682132	          0.10900615	          0.12209003	          0.34746427	          0.41824472	          0.31939362	          0.64729267	          0.54493413	          0.37020404	          0.05380025	          0.06186433	          0.07172401	          0.07057753	          0.05000115	          0.05000010	          0.05995004	          0.05128998	          0.05000082	          0.05029501	          0.05000086	          0.07734951	          0.05000010	          0.05000043	          0.08618545	          0.09660199	          0.18215596	          0.19585906	          0.13800536	          0.05000019	          0.05127370	          0.05000287	          0.05967946	          0.11094145	          0.16306884	          0.06320952	          0.05951091	          0.17576037	          0.05001494	          0.18494140	          0.07188097	          0.21521031	          0.20805250	          0.18110277	          0.05907220	          0.05452052	          0.05169295	          0.05000002	          0.05217148	          0.05178809	          0.66137137	          0.24370709	          0.14705970	          0.51303565	          0.61606560	          0.32889649	          0.05000004	          0.11163544	          0.09531341	
          1.21792394	         -2.90808353	         -0.42240514	          8.62039199	          1.53098487	          0.85561788	         -0.00124735	        -15.83227247	         -2.79648618	          5.52821267	         31.53101458	         -0.34024443	         -2.70045770	        -19.45598297	        -20.11556394	        -13.25866943	          2.55432896	         18.26794661	          6.34281639	        -11.50881837	         -0.35778710	         35.75775854	          1.06495913	          1.09655234	         -1.76258892	         -2.71236876	          2.07573370	        -13.64308565	         16.43951297	        -15.37622836	        -13.55845610	         11.94976779	         42.90455146	         17.44221768	         86.51662706	         86.51662706	          0.09940420	          0.05940179	          0.05994859	          0.12189715	          0.08825493	          0.05865776	          0.05000148	          0.05000064	          0.05004665	          0.05000011	          0.05576549	          0.19272268	          0.31945790	          0.18714055	          0.09598885	          0.13055278	          0.11877023	          0.07190688	          0.05995215	          0.05007974	          0.05056372	          0.05995020	          0.20638893	          0.25739672	          0.05995041	          0.05994289	          0.05000023	          0.14855960	          0.08618537	          0.07902301	          0.07188141	          0.09153390	          0.13127359	          0.05000003	          0.08909149	          0.09091372	          0.10182596	          0.41938903	          0.39304986	          0.28529058	          0.53985868	          0.45448782	          0.30875884	          0.07172157	          0.05161236	          0.05995042	          0.17659917	          0.05000009	          0.28139008	          0.05000013	          0.05000012	          0.05000023	          0.05000005	          0.05000007	          0.06451135	          0.05000006	          0.05000035	          0.07188087	          0.08056841	          0.15192245	          0.16335130	          0.14198871	          0.05000030	          0.05999514	          0.05995407	          0.05000011	          0.14174182	          0.16296175	          0.05994971	          0.05323725	          0.18608629	          0.05000064	          0.26170359	          0.05995051	          0.30624647	          0.29136776	          0.25580492	          0.05000022	          0.05000015	          0.05000003	          0.05000002	          0.05000014	          0.05000011	          0.61623767	          0.20325748	          0.12265143	          0.52247789	          0.54021313	          0.27430742	          0.05000000	          0.09310657	          0.07949362	
          1.22986437	         -2.88978447	         -0.35264096	          8.68455675	          1.55020017	          0.85347421	         -0.00094564	        -15.64812167	         -2.95380865	          5.31195112	         30.69609993	         -0.12236142	         -2.39844112	        -21.49775811	        -20.93780656	        -15.04798439	          2.45987043	         18.50135941	          5.87743930	        -10.71276587	         -0.69948213	         32.75988414	          1.12785319	          1.31107710	         -1.54994076	         -2.77334562	          1.64575172	        -13.71963921	         16.62675280	        -16.62219195	        -13.57654867	         12.21840586	         43.87969609	         17.27480644	         86.51662706	         86.51662706	          0.24495671	          0.05000005	          0.05000002	          0.18748583	          0.07360677	          0.05000014	          0.05000224	          0.05000008	          0.05000010	          0.05000011	          0.05005256	          0.16073535	          0.26643547	          0.15607970	          0.08005722	          0.10888421	          0.09905722	          0.05997235	          0.05000161	          0.05000038	          0.05000025	          0.05000018	          0.17213323	          0.24139995	          0.05000008	          0.05000015	          0.05000009	          0.12390218	          0.07188064	          0.06590706	          0.05995079	          0.07634141	          0.10948525	          0.05000000	          0.07430443	          0.07582426	          0.08492533	          0.36517804	          0.32781280	          0.23793903	          0.45025485	          0.68296393	          0.25751343	          0.11454377	          0.05000000	          0.05000007	          0.28346003	          0.36647595	          0.53816897	          0.24465395	          0.30305328	          0.45455578	          0.05426529	          0.05467303	          0.05995050	          0.05995045	          0.05994017	          0.05995035	          0.06719595	          0.12670691	          0.13623886	          0.12312269	          0.05000030	          0.05003759	          0.05000340	          0.26738969	          0.21516084	          0.14407556	          0.05000012	          0.05000008	          0.15520048	          0.12378597	          0.32488348	          0.05000014	          0.34526797	          0.33931685	          0.30110885	          0.05000001	          0.05000003	          0.05000000	          0.10630420	          0.05000081	          0.05000059	          0.75463657	          0.16952150	          0.10229417	          0.44302620	          0.59976904	          0.42935920	          0.05315574	          0.07765306	          0.06629954	
